<svg xmlns="http://www.w3.org/2000/svg" viewBox="0 0 560 340" width="560" height="340">
  <defs>
    <linearGradient id="rgbG" x1="0%" y1="0%" x2="100%" y2="100%">
      <stop offset="0%" stop-color="#ff0080"><animate attributeName="stop-color" values="#ff0080;#ff8000;#ffff00;#00ff80;#0080ff;#8000ff;#ff0080" dur="4s" repeatCount="indefinite"/></stop>
      <stop offset="50%" stop-color="#00ff80"><animate attributeName="stop-color" values="#00ff80;#0080ff;#8000ff;#ff0080;#ff8000;#ffff00;#00ff80" dur="4s" repeatCount="indefinite"/></stop>
      <stop offset="100%" stop-color="#0080ff"><animate attributeName="stop-color" values="#0080ff;#8000ff;#ff0080;#ff8000;#ffff00;#00ff80;#0080ff" dur="4s" repeatCount="indefinite"/></stop>
    </linearGradient>
    <linearGradient id="metalG" x1="0%" y1="0%" x2="0%" y2="100%">
      <stop offset="0%" stop-color="#3a3a3a"/>
      <stop offset="50%" stop-color="#1a1a1a"/>
      <stop offset="100%" stop-color="#2a2a2a"/>
    </linearGradient>
    <linearGradient id="bladeG" x1="0%" y1="0%" x2="100%" y2="100%">
      <stop offset="0%" stop-color="#333"/><stop offset="100%" stop-color="#555"/>
    </linearGradient>
    <filter id="glow"><feGaussianBlur stdDeviation="2.5" result="b"/><feMerge><feMergeNode in="b"/><feMergeNode in="SourceGraphic"/></feMerge></filter>
    <filter id="rgbGlow"><feGaussianBlur stdDeviation="5" result="b"/><feMerge><feMergeNode in="b"/><feMergeNode in="SourceGraphic"/></feMerge></filter>
    <path id="bl" d="M0,-46 C12,-40 18,-24 10,-10 C5,-2 0,0 0,0 C0,0 -5,-2 -10,-10 C-18,-24 -12,-40 0,-46 Z"/>
  </defs>
  <rect x="155" y="25" width="265" height="200" rx="10" fill="url(#metalG)" stroke="#3a3a3a" stroke-width="2"/>
  <rect x="155" y="25" width="265" height="12" rx="6" fill="#2a2a2a" stroke="#444" stroke-width="1"/>
  <rect x="155" y="213" width="265" height="12" rx="6" fill="#2a2a2a" stroke="#444" stroke-width="1"/>
  <g stroke="#252525" stroke-width="0.7">
    <line x1="165" y1="37" x2="165" y2="213"/><line x1="172" y1="37" x2="172" y2="213"/><line x1="179" y1="37" x2="179" y2="213"/>
    <line x1="186" y1="37" x2="186" y2="213"/><line x1="193" y1="37" x2="193" y2="213"/><line x1="200" y1="37" x2="200" y2="213"/>
    <line x1="207" y1="37" x2="207" y2="213"/><line x1="214" y1="37" x2="214" y2="213"/><line x1="221" y1="37" x2="221" y2="213"/>
    <line x1="228" y1="37" x2="228" y2="213"/><line x1="235" y1="37" x2="235" y2="213"/><line x1="242" y1="37" x2="242" y2="213"/>
    <line x1="249" y1="37" x2="249" y2="213"/><line x1="256" y1="37" x2="256" y2="213"/><line x1="263" y1="37" x2="263" y2="213"/>
    <line x1="270" y1="37" x2="270" y2="213"/><line x1="277" y1="37" x2="277" y2="213"/><line x1="284" y1="37" x2="284" y2="213"/>
    <line x1="291" y1="37" x2="291" y2="213"/><line x1="298" y1="37" x2="298" y2="213"/><line x1="305" y1="37" x2="305" y2="213"/>
    <line x1="312" y1="37" x2="312" y2="213"/><line x1="319" y1="37" x2="319" y2="213"/><line x1="326" y1="37" x2="326" y2="213"/>
    <line x1="333" y1="37" x2="333" y2="213"/><line x1="340" y1="37" x2="340" y2="213"/><line x1="347" y1="37" x2="347" y2="213"/>
    <line x1="354" y1="37" x2="354" y2="213"/><line x1="361" y1="37" x2="361" y2="213"/><line x1="368" y1="37" x2="368" y2="213"/>
    <line x1="375" y1="37" x2="375" y2="213"/><line x1="382" y1="37" x2="382" y2="213"/><line x1="389" y1="37" x2="389" y2="213"/>
    <line x1="396" y1="37" x2="396" y2="213"/><line x1="403" y1="37" x2="403" y2="213"/>
  </g>
  <g stroke="#1e1e1e" stroke-width="0.5" opacity="0.6">
    <line x1="155" y1="60" x2="420" y2="60"/><line x1="155" y1="85" x2="420" y2="85"/>
    <line x1="155" y1="110" x2="420" y2="110"/><line x1="155" y1="135" x2="420" y2="135"/>
    <line x1="155" y1="160" x2="420" y2="160"/><line x1="155" y1="185" x2="420" y2="185"/>
  </g>
  <g transform="translate(223,122)">
    <rect x="-60" y="-60" width="120" height="120" rx="12" fill="#0d0d0d" stroke="#3a3a3a" stroke-width="2.5"/>
    <circle cx="-48" cy="-48" r="6" fill="#161616" stroke="#444" stroke-width="1.5"/><circle cx="-48" cy="-48" r="2.5" fill="#0a0a0a" stroke="#555" stroke-width="0.8"/>
    <circle cx="48" cy="-48" r="6" fill="#161616" stroke="#444" stroke-width="1.5"/><circle cx="48" cy="-48" r="2.5" fill="#0a0a0a" stroke="#555" stroke-width="0.8"/>
    <circle cx="-48" cy="48" r="6" fill="#161616" stroke="#444" stroke-width="1.5"/><circle cx="-48" cy="48" r="2.5" fill="#0a0a0a" stroke="#555" stroke-width="0.8"/>
    <circle cx="48" cy="48" r="6" fill="#161616" stroke="#444" stroke-width="1.5"/><circle cx="48" cy="48" r="2.5" fill="#0a0a0a" stroke="#555" stroke-width="0.8"/>
    <circle r="54" fill="none" stroke="#2a2a2a" stroke-width="3"/>
    <g filter="url(#glow)">
      <animateTransform attributeName="transform" type="rotate" from="0" to="360" dur="1.2s" repeatCount="indefinite"/>
      <use href="#bl" fill="url(#bladeG)" transform="rotate(0)"/><use href="#bl" fill="url(#bladeG)" transform="rotate(45)"/>
      <use href="#bl" fill="url(#bladeG)" transform="rotate(90)"/><use href="#bl" fill="url(#bladeG)" transform="rotate(135)"/>
      <use href="#bl" fill="url(#bladeG)" transform="rotate(180)"/><use href="#bl" fill="url(#bladeG)" transform="rotate(225)"/>
      <use href="#bl" fill="url(#bladeG)" transform="rotate(270)"/><use href="#bl" fill="url(#bladeG)" transform="rotate(315)"/>
    </g>
    <circle r="16" fill="#111" stroke="#444" stroke-width="2"/>
    <circle r="11" fill="#0d0d0d" stroke="#555" stroke-width="1.5"/>
    <circle r="5" fill="#1a1a1a" stroke="#444" stroke-width="1"/>
  </g>
  <g transform="translate(352,122)">
    <rect x="-60" y="-60" width="120" height="120" rx="12" fill="#0d0d0d" stroke="#3a3a3a" stroke-width="2.5"/>
    <circle cx="-48" cy="-48" r="6" fill="#161616" stroke="#444" stroke-width="1.5"/><circle cx="-48" cy="-48" r="2.5" fill="#0a0a0a" stroke="#555" stroke-width="0.8"/>
    <circle cx="48" cy="-48" r="6" fill="#161616" stroke="#444" stroke-width="1.5"/><circle cx="48" cy="-48" r="2.5" fill="#0a0a0a" stroke="#555" stroke-width="0.8"/>
    <circle cx="-48" cy="48" r="6" fill="#161616" stroke="#444" stroke-width="1.5"/><circle cx="-48" cy="48" r="2.5" fill="#0a0a0a" stroke="#555" stroke-width="0.8"/>
    <circle cx="48" cy="48" r="6" fill="#161616" stroke="#444" stroke-width="1.5"/><circle cx="48" cy="48" r="2.5" fill="#0a0a0a" stroke="#555" stroke-width="0.8"/>
    <circle r="54" fill="none" stroke="#2a2a2a" stroke-width="3"/>
    <g filter="url(#glow)">
      <animateTransform attributeName="transform" type="rotate" from="360" to="0" dur="1.2s" repeatCount="indefinite"/>
      <use href="#bl" fill="url(#bladeG)" transform="rotate(0)"/><use href="#bl" fill="url(#bladeG)" transform="rotate(45)"/>
      <use href="#bl" fill="url(#bladeG)" transform="rotate(90)"/><use href="#bl" fill="url(#bladeG)" transform="rotate(135)"/>
      <use href="#bl" fill="url(#bladeG)" transform="rotate(180)"/><use href="#bl" fill="url(#bladeG)" transform="rotate(225)"/>
      <use href="#bl" fill="url(#bladeG)" transform="rotate(270)"/><use href="#bl" fill="url(#bladeG)" transform="rotate(315)"/>
    </g>
    <circle r="16" fill="#111" stroke="#444" stroke-width="2"/>
    <circle r="11" fill="#0d0d0d" stroke="#555" stroke-width="1.5"/>
    <circle r="5" fill="#1a1a1a" stroke="#444" stroke-width="1"/>
  </g>
  <path d="M134,190 C120,185 105,178 98,165 C91,152 94,138 90,125 C86,112 78,106 75,100" fill="none" stroke="#444" stroke-width="11" stroke-linecap="round"/>
  <path d="M134,190 C120,185 105,178 98,165 C91,152 94,138 90,125 C86,112 78,106 75,100" fill="none" stroke="#555" stroke-width="9" stroke-linecap="round"/>
  <path d="M134,190 C120,185 105,178 98,165 C91,152 94,138 90,125 C86,112 78,106 75,100" fill="none" stroke="#666" stroke-width="2" stroke-linecap="round" stroke-dasharray="5,7" opacity="0.4"/>
  <path d="M134,200 C118,198 102,194 94,184 C86,174 89,160 85,148 C81,136 72,128 68,120" fill="none" stroke="#3a3a3a" stroke-width="11" stroke-linecap="round"/>
  <path d="M134,200 C118,198 102,194 94,184 C86,174 89,160 85,148 C81,136 72,128 68,120" fill="none" stroke="#4a4a4a" stroke-width="9" stroke-linecap="round"/>
  <path d="M134,200 C118,198 102,194 94,184 C86,174 89,160 85,148 C81,136 72,128 68,120" fill="none" stroke="#5a5a5a" stroke-width="2" stroke-linecap="round" stroke-dasharray="5,7" opacity="0.4"/>
  <rect x="125" y="184" width="14" height="18" rx="3" fill="#333" stroke="#555" stroke-width="1.5"/>
  <g transform="translate(80,190)">
    <rect x="-40" y="-40" width="80" height="80" rx="16" fill="url(#rgbG)" opacity="0.25" filter="url(#rgbGlow)">
      <animate attributeName="opacity" values="0.2;0.45;0.2" dur="2.5s" repeatCount="indefinite"/>
    </rect>
    <rect x="-36" y="-36" width="72" height="72" rx="13" fill="#111" stroke="url(#rgbG)" stroke-width="3"/>
    <rect x="-28" y="-28" width="56" height="56" rx="9" fill="#0d0d0d" stroke="#2a2a2a" stroke-width="1.5"/>
    <g fill="white" opacity="0.92">
      <polygon points="0,-18 12,2 10,2 10,14 -10,14 -10,2 -12,2"/>
      <polygon points="0,-14 -6,2 6,2" fill="#0d0d0d"/>
    </g>
    <circle cx="-30" cy="-30" r="4" fill="url(#rgbG)" filter="url(#rgbGlow)"><animate attributeName="opacity" values="1;0.3;1" dur="1s" repeatCount="indefinite"/></circle>
    <circle cx="30" cy="-30" r="4" fill="url(#rgbG)" filter="url(#rgbGlow)"><animate attributeName="opacity" values="0.3;1;0.3" dur="1s" begin="-0.25s" repeatCount="indefinite"/></circle>
    <circle cx="-30" cy="30" r="4" fill="url(#rgbG)" filter="url(#rgbGlow)"><animate attributeName="opacity" values="1;0.3;1" dur="1s" begin="-0.5s" repeatCount="indefinite"/></circle>
    <circle cx="30" cy="30" r="4" fill="url(#rgbG)" filter="url(#rgbGlow)"><animate attributeName="opacity" values="0.3;1;0.3" dur="1s" begin="-0.75s" repeatCount="indefinite"/></circle>
  </g>
</svg>
