<svg xmlns="http://www.w3.org/2000/svg" viewBox="0 0 440 280">
<defs>
  <linearGradient id="m" x1="0%" y1="0%" x2="0%" y2="100%">
    <stop offset="0%" stop-color="#2a2a3a"/><stop offset="50%" stop-color="#111118"/><stop offset="100%" stop-color="#1c1c28"/>
  </linearGradient>
  <linearGradient id="rgb" x1="0%" y1="0%" x2="100%" y2="0%">
    <stop offset="0%" stop-color="#ff0088"><animate attributeName="stop-color" values="#ff0088;#00d4ff;#00ff88;#ff8800;#ff0088" dur="3s" repeatCount="indefinite"/></stop>
    <stop offset="100%" stop-color="#00d4ff"><animate attributeName="stop-color" values="#00d4ff;#00ff88;#ff8800;#ff0088;#00d4ff" dur="3s" repeatCount="indefinite"/></stop>
  </linearGradient>
  <filter id="g"><feGaussianBlur stdDeviation="2" result="b"/><feMerge><feMergeNode in="b"/><feMergeNode in="SourceGraphic"/></feMerge></filter>
  <filter id="rg"><feGaussianBlur stdDeviation="4" result="b"/><feMerge><feMergeNode in="b"/><feMergeNode in="SourceGraphic"/></feMerge></filter>
  <path id="bl" d="M0,-40 C11,-34 16,-20 9,-9 C4,-2 0,0 0,0 C-4,-2 -9,-9 -16,-20 C-11,-34 0,-40 0,-40Z"/>
</defs>
<!-- Radiator body -->
<rect x="100" y="18" width="260" height="185" rx="9" fill="url(#m)" stroke="#252535" stroke-width="1.5"/>
<rect x="100" y="18" width="260" height="11" rx="5" fill="#1c1c28" stroke="#333" stroke-width="1"/>
<rect x="100" y="192" width="260" height="11" rx="5" fill="#1c1c28" stroke="#333" stroke-width="1"/>
<!-- Radiator fins vertical -->
<g stroke="#191924" stroke-width="0.6">
  <line x1="109" y1="29" x2="109" y2="192"/><line x1="115" y1="29" x2="115" y2="192"/><line x1="121" y1="29" x2="121" y2="192"/>
  <line x1="127" y1="29" x2="127" y2="192"/><line x1="133" y1="29" x2="133" y2="192"/><line x1="139" y1="29" x2="139" y2="192"/>
  <line x1="145" y1="29" x2="145" y2="192"/><line x1="151" y1="29" x2="151" y2="192"/><line x1="157" y1="29" x2="157" y2="192"/>
  <line x1="163" y1="29" x2="163" y2="192"/><line x1="169" y1="29" x2="169" y2="192"/><line x1="175" y1="29" x2="175" y2="192"/>
  <line x1="181" y1="29" x2="181" y2="192"/><line x1="187" y1="29" x2="187" y2="192"/><line x1="193" y1="29" x2="193" y2="192"/>
  <line x1="199" y1="29" x2="199" y2="192"/><line x1="205" y1="29" x2="205" y2="192"/><line x1="211" y1="29" x2="211" y2="192"/>
  <line x1="217" y1="29" x2="217" y2="192"/><line x1="223" y1="29" x2="223" y2="192"/><line x1="229" y1="29" x2="229" y2="192"/>
  <line x1="235" y1="29" x2="235" y2="192"/><line x1="241" y1="29" x2="241" y2="192"/><line x1="247" y1="29" x2="247" y2="192"/>
  <line x1="253" y1="29" x2="253" y2="192"/><line x1="259" y1="29" x2="259" y2="192"/><line x1="265" y1="29" x2="265" y2="192"/>
  <line x1="271" y1="29" x2="271" y2="192"/><line x1="277" y1="29" x2="277" y2="192"/><line x1="283" y1="29" x2="283" y2="192"/>
  <line x1="289" y1="29" x2="289" y2="192"/><line x1="295" y1="29" x2="295" y2="192"/><line x1="301" y1="29" x2="301" y2="192"/>
  <line x1="307" y1="29" x2="307" y2="192"/><line x1="313" y1="29" x2="313" y2="192"/><line x1="319" y1="29" x2="319" y2="192"/>
  <line x1="325" y1="29" x2="325" y2="192"/><line x1="331" y1="29" x2="331" y2="192"/><line x1="337" y1="29" x2="337" y2="192"/>
  <line x1="343" y1="29" x2="343" y2="192"/><line x1="349" y1="29" x2="349" y2="192"/>
</g>
<!-- Horizontal fin lines -->
<g stroke="#161620" stroke-width="0.5" opacity="0.7">
  <line x1="100" y1="55" x2="360" y2="55"/><line x1="100" y1="82" x2="360" y2="82"/>
  <line x1="100" y1="110" x2="360" y2="110"/><line x1="100" y1="138" x2="360" y2="138"/>
  <line x1="100" y1="165" x2="360" y2="165"/>
</g>
<!-- Fan 1 left -->
<g transform="translate(162,110)">
  <rect x="-52" y="-52" width="104" height="104" rx="11" fill="#0c0c14" stroke="#252535" stroke-width="2"/>
  <circle cx="-42" cy="-42" r="5.5" fill="#0f0f18" stroke="#2d2d3d" stroke-width="1.3"/>
  <circle cx="-42" cy="-42" r="2.2" fill="#080810" stroke="#444" stroke-width="0.8"/>
  <circle cx="42" cy="-42" r="5.5" fill="#0f0f18" stroke="#2d2d3d" stroke-width="1.3"/>
  <circle cx="42" cy="-42" r="2.2" fill="#080810" stroke="#444" stroke-width="0.8"/>
  <circle cx="-42" cy="42" r="5.5" fill="#0f0f18" stroke="#2d2d3d" stroke-width="1.3"/>
  <circle cx="-42" cy="42" r="2.2" fill="#080810" stroke="#444" stroke-width="0.8"/>
  <circle cx="42" cy="42" r="5.5" fill="#0f0f18" stroke="#2d2d3d" stroke-width="1.3"/>
  <circle cx="42" cy="42" r="2.2" fill="#080810" stroke="#444" stroke-width="0.8"/>
  <circle r="47" fill="none" stroke="#1e1e2a" stroke-width="2.5"/>
  <g filter="url(#g)">
    <animateTransform attributeName="transform" type="rotate" from="0" to="360" dur="1.15s" repeatCount="indefinite"/>
    <use href="#bl" fill="#222230" transform="rotate(0)"/>
    <use href="#bl" fill="#222230" transform="rotate(45)"/>
    <use href="#bl" fill="#222230" transform="rotate(90)"/>
    <use href="#bl" fill="#222230" transform="rotate(135)"/>
    <use href="#bl" fill="#222230" transform="rotate(180)"/>
    <use href="#bl" fill="#222230" transform="rotate(225)"/>
    <use href="#bl" fill="#222230" transform="rotate(270)"/>
    <use href="#bl" fill="#222230" transform="rotate(315)"/>
  </g>
  <circle r="14" fill="#0c0c14" stroke="#333340" stroke-width="1.8"/>
  <circle r="8" fill="#080810" stroke="#3a3a4a" stroke-width="1.2"/>
  <circle r="3.5" fill="#1a1a25" stroke="#3d3d4d" stroke-width="0.8"/>
</g>
<!-- Fan 2 right -->
<g transform="translate(298,110)">
  <rect x="-52" y="-52" width="104" height="104" rx="11" fill="#0c0c14" stroke="#252535" stroke-width="2"/>
  <circle cx="-42" cy="-42" r="5.5" fill="#0f0f18" stroke="#2d2d3d" stroke-width="1.3"/>
  <circle cx="-42" cy="-42" r="2.2" fill="#080810" stroke="#444" stroke-width="0.8"/>
  <circle cx="42" cy="-42" r="5.5" fill="#0f0f18" stroke="#2d2d3d" stroke-width="1.3"/>
  <circle cx="42" cy="-42" r="2.2" fill="#080810" stroke="#444" stroke-width="0.8"/>
  <circle cx="-42" cy="42" r="5.5" fill="#0f0f18" stroke="#2d2d3d" stroke-width="1.3"/>
  <circle cx="-42" cy="42" r="2.2" fill="#080810" stroke="#444" stroke-width="0.8"/>
  <circle cx="42" cy="42" r="5.5" fill="#0f0f18" stroke="#2d2d3d" stroke-width="1.3"/>
  <circle cx="42" cy="42" r="2.2" fill="#080810" stroke="#444" stroke-width="0.8"/>
  <circle r="47" fill="none" stroke="#1e1e2a" stroke-width="2.5"/>
  <g filter="url(#g)">
    <animateTransform attributeName="transform" type="rotate" from="360" to="0" dur="1.15s" repeatCount="indefinite"/>
    <use href="#bl" fill="#222230" transform="rotate(0)"/>
    <use href="#bl" fill="#222230" transform="rotate(45)"/>
    <use href="#bl" fill="#222230" transform="rotate(90)"/>
    <use href="#bl" fill="#222230" transform="rotate(135)"/>
    <use href="#bl" fill="#222230" transform="rotate(180)"/>
    <use href="#bl" fill="#222230" transform="rotate(225)"/>
    <use href="#bl" fill="#222230" transform="rotate(270)"/>
    <use href="#bl" fill="#222230" transform="rotate(315)"/>
  </g>
  <circle r="14" fill="#0c0c14" stroke="#333340" stroke-width="1.8"/>
  <circle r="8" fill="#080810" stroke="#3a3a4a" stroke-width="1.2"/>
  <circle r="3.5" fill="#1a1a25" stroke="#3d3d4d" stroke-width="0.8"/>
</g>
<!-- Tubes -->
<path d="M100,172 C80,167 64,157 57,144 C50,130 54,116 50,103 C46,90 38,83 35,76" fill="none" stroke="#2d2d3a" stroke-width="10" stroke-linecap="round"/>
<path d="M100,172 C80,167 64,157 57,144 C50,130 54,116 50,103 C46,90 38,83 35,76" fill="none" stroke="#3d3d4a" stroke-width="8" stroke-linecap="round"/>
<path d="M100,183 C78,180 60,172 52,160 C44,148 48,133 44,121 C40,109 31,101 28,94" fill="none" stroke="#222230" stroke-width="10" stroke-linecap="round"/>
<path d="M100,183 C78,180 60,172 52,160 C44,148 48,133 44,121 C40,109 31,101 28,94" fill="none" stroke="#323240" stroke-width="8" stroke-linecap="round"/>
<!-- Pump/CPU block -->
<g transform="translate(32,170)">
  <rect x="-30" y="-30" width="60" height="60" rx="11" fill="url(#rgb)" opacity="0.2" filter="url(#rg)">
    <animate attributeName="opacity" values="0.15;0.35;0.15" dur="2.2s" repeatCount="indefinite"/>
  </rect>
  <rect x="-26" y="-26" width="52" height="52" rx="9" fill="#0c0c14" stroke="url(#rgb)" stroke-width="2.5"/>
  <rect x="-19" y="-19" width="38" height="38" rx="6" fill="#080810" stroke="#1e1e2a" stroke-width="1"/>
  <!-- Corsair sail logo -->
  <polygon points="0,-13 9,2 8,2 8,10 -8,10 -8,2 -9,2" fill="rgba(255,255,255,0.9)"/>
  <polygon points="0,-10 -5,2 5,2" fill="#0c0c14"/>
  <!-- RGB corner LEDs -->
  <circle cx="-22" cy="-22" r="3.5" fill="url(#rgb)" filter="url(#g)"><animate attributeName="opacity" values="1;0.15;1" dur="0.9s" repeatCount="indefinite"/></circle>
  <circle cx="22" cy="-22" r="3.5" fill="url(#rgb)" filter="url(#g)"><animate attributeName="opacity" values="0.15;1;0.15" dur="0.9s" begin="-0.22s" repeatCount="indefinite"/></circle>
  <circle cx="-22" cy="22" r="3.5" fill="url(#rgb)" filter="url(#g)"><animate attributeName="opacity" values="1;0.15;1" dur="0.9s" begin="-0.45s" repeatCount="indefinite"/></circle>
  <circle cx="22" cy="22" r="3.5" fill="url(#rgb)" filter="url(#g)"><animate attributeName="opacity" values="0.15;1;0.15" dur="0.9s" begin="-0.67s" repeatCount="indefinite"/></circle>
</g>
</svg>