<svg xmlns="http://www.w3.org/2000/svg" viewBox="0 0 580 260">
<defs>
  <linearGradient id="m6" x1="0%" y1="0%" x2="0%" y2="100%">
    <stop offset="0%" stop-color="#1e1e30"/><stop offset="50%" stop-color="#0b0b18"/><stop offset="100%" stop-color="#161625"/>
  </linearGradient>
  <linearGradient id="rgb6" x1="0%" y1="0%" x2="100%" y2="0%">
    <stop offset="0%" stop-color="#ff0066"><animate attributeName="stop-color" values="#ff0066;#6600ff;#00ffaa;#ff0066" dur="3s" repeatCount="indefinite"/></stop>
    <stop offset="50%" stop-color="#6600ff"><animate attributeName="stop-color" values="#6600ff;#00ffaa;#ff0066;#6600ff" dur="3s" repeatCount="indefinite"/></stop>
    <stop offset="100%" stop-color="#00ffaa"><animate attributeName="stop-color" values="#00ffaa;#ff0066;#6600ff;#00ffaa" dur="3s" repeatCount="indefinite"/></stop>
  </linearGradient>
  <filter id="g6"><feGaussianBlur stdDeviation="2" result="b"/><feMerge><feMergeNode in="b"/><feMergeNode in="SourceGraphic"/></feMerge></filter>
  <filter id="rg6"><feGaussianBlur stdDeviation="6" result="b"/><feMerge><feMergeNode in="b"/><feMergeNode in="SourceGraphic"/></feMerge></filter>
  <path id="bl6" d="M0,-42 C11,-35 17,-21 9,-9 C4,-2 0,0 -4,-2 C-9,-9 -17,-21 -11,-35Z"/>
</defs>
<!-- Radiator 360mm thick premium -->
<rect x="50" y="18" width="480" height="185" rx="10" fill="url(#m6)" stroke="#1e1e30" stroke-width="2"/>
<rect x="50" y="18" width="480" height="12" rx="6" fill="#161625" stroke="#2d2d40" stroke-width="1.2"/>
<rect x="50" y="191" width="480" height="12" rx="6" fill="#161625" stroke="#2d2d40" stroke-width="1.2"/>
<!-- RGB strip on radiator top edge -->
<rect x="50" y="18" width="480" height="4" rx="2" fill="url(#rgb6)" opacity="0.8">
  <animate attributeName="opacity" values="0.6;1;0.6" dur="2s" repeatCount="indefinite"/>
</rect>
<!-- Dense fins 360mm -->
<g stroke="#131322" stroke-width="0.55">
  <line x1="60" y1="30" x2="60" y2="190"/><line x1="66" y1="30" x2="66" y2="190"/><line x1="72" y1="30" x2="72" y2="190"/><line x1="78" y1="30" x2="78" y2="190"/>
  <line x1="84" y1="30" x2="84" y2="190"/><line x1="90" y1="30" x2="90" y2="190"/><line x1="96" y1="30" x2="96" y2="190"/><line x1="102" y1="30" x2="102" y2="190"/>
  <line x1="108" y1="30" x2="108" y2="190"/><line x1="114" y1="30" x2="114" y2="190"/><line x1="120" y1="30" x2="120" y2="190"/><line x1="126" y1="30" x2="126" y2="190"/>
  <line x1="132" y1="30" x2="132" y2="190"/><line x1="138" y1="30" x2="138" y2="190"/><line x1="144" y1="30" x2="144" y2="190"/><line x1="150" y1="30" x2="150" y2="190"/>
  <line x1="156" y1="30" x2="156" y2="190"/><line x1="162" y1="30" x2="162" y2="190"/><line x1="168" y1="30" x2="168" y2="190"/><line x1="174" y1="30" x2="174" y2="190"/>
  <line x1="180" y1="30" x2="180" y2="190"/><line x1="186" y1="30" x2="186" y2="190"/><line x1="192" y1="30" x2="192" y2="190"/><line x1="198" y1="30" x2="198" y2="190"/>
  <line x1="204" y1="30" x2="204" y2="190"/><line x1="210" y1="30" x2="210" y2="190"/><line x1="216" y1="30" x2="216" y2="190"/><line x1="222" y1="30" x2="222" y2="190"/>
  <line x1="228" y1="30" x2="228" y2="190"/><line x1="234" y1="30" x2="234" y2="190"/><line x1="240" y1="30" x2="240" y2="190"/><line x1="246" y1="30" x2="246" y2="190"/>
  <line x1="252" y1="30" x2="252" y2="190"/><line x1="258" y1="30" x2="258" y2="190"/><line x1="264" y1="30" x2="264" y2="190"/><line x1="270" y1="30" x2="270" y2="190"/>
  <line x1="276" y1="30" x2="276" y2="190"/><line x1="282" y1="30" x2="282" y2="190"/><line x1="288" y1="30" x2="288" y2="190"/><line x1="294" y1="30" x2="294" y2="190"/>
  <line x1="300" y1="30" x2="300" y2="190"/><line x1="306" y1="30" x2="306" y2="190"/><line x1="312" y1="30" x2="312" y2="190"/><line x1="318" y1="30" x2="318" y2="190"/>
  <line x1="324" y1="30" x2="324" y2="190"/><line x1="330" y1="30" x2="330" y2="190"/><line x1="336" y1="30" x2="336" y2="190"/><line x1="342" y1="30" x2="342" y2="190"/>
  <line x1="348" y1="30" x2="348" y2="190"/><line x1="354" y1="30" x2="354" y2="190"/><line x1="360" y1="30" x2="360" y2="190"/><line x1="366" y1="30" x2="366" y2="190"/>
  <line x1="372" y1="30" x2="372" y2="190"/><line x1="378" y1="30" x2="378" y2="190"/><line x1="384" y1="30" x2="384" y2="190"/><line x1="390" y1="30" x2="390" y2="190"/>
  <line x1="396" y1="30" x2="396" y2="190"/><line x1="402" y1="30" x2="402" y2="190"/><line x1="408" y1="30" x2="408" y2="190"/><line x1="414" y1="30" x2="414" y2="190"/>
  <line x1="420" y1="30" x2="420" y2="190"/><line x1="426" y1="30" x2="426" y2="190"/><line x1="432" y1="30" x2="432" y2="190"/><line x1="438" y1="30" x2="438" y2="190"/>
  <line x1="444" y1="30" x2="444" y2="190"/><line x1="450" y1="30" x2="450" y2="190"/><line x1="456" y1="30" x2="456" y2="190"/><line x1="462" y1="30" x2="462" y2="190"/>
  <line x1="468" y1="30" x2="468" y2="190"/><line x1="474" y1="30" x2="474" y2="190"/><line x1="480" y1="30" x2="480" y2="190"/><line x1="486" y1="30" x2="486" y2="190"/>
  <line x1="492" y1="30" x2="492" y2="190"/><line x1="498" y1="30" x2="498" y2="190"/><line x1="504" y1="30" x2="504" y2="190"/><line x1="510" y1="30" x2="510" y2="190"/>
  <line x1="516" y1="30" x2="516" y2="190"/><line x1="522" y1="30" x2="522" y2="190"/>
</g>
<g stroke="#0f0f1e" stroke-width="0.4" opacity="0.5">
  <line x1="50" y1="58" x2="530" y2="58"/><line x1="50" y1="88" x2="530" y2="88"/>
  <line x1="50" y1="118" x2="530" y2="118"/><line x1="50" y1="148" x2="530" y2="148"/>
  <line x1="50" y1="175" x2="530" y2="175"/>
</g>
<!-- 3 Fans for Titan -->
<g transform="translate(130,108)">
  <rect x="-52" y="-52" width="104" height="104" rx="11" fill="#09091380" stroke="#1e1e2e" stroke-width="1.8"/>
  <circle cx="-42" cy="-42" r="5.5" fill="#0d0d18" stroke="#222232" stroke-width="1.2"/><circle cx="-42" cy="-42" r="2" fill="#060610"/>
  <circle cx="42" cy="-42" r="5.5" fill="#0d0d18" stroke="#222232" stroke-width="1.2"/><circle cx="42" cy="-42" r="2" fill="#060610"/>
  <circle cx="-42" cy="42" r="5.5" fill="#0d0d18" stroke="#222232" stroke-width="1.2"/><circle cx="-42" cy="42" r="2" fill="#060610"/>
  <circle cx="42" cy="42" r="5.5" fill="#0d0d18" stroke="#222232" stroke-width="1.2"/><circle cx="42" cy="42" r="2" fill="#060610"/>
  <circle r="47" fill="none" stroke="#181828" stroke-width="2.5"/>
  <circle r="47" fill="none" stroke="url(#rgb6)" stroke-width="1" opacity="0.4" stroke-dasharray="15,10">
    <animateTransform attributeName="transform" type="rotate" from="0" to="360" dur="6s" repeatCount="indefinite"/>
  </circle>
  <g filter="url(#g6)">
    <animateTransform attributeName="transform" type="rotate" from="0" to="360" dur="1.05s" repeatCount="indefinite"/>
    <use href="#bl6" fill="#1c1c2c" transform="rotate(0)"/><use href="#bl6" fill="#1c1c2c" transform="rotate(45)"/>
    <use href="#bl6" fill="#1c1c2c" transform="rotate(90)"/><use href="#bl6" fill="#1c1c2c" transform="rotate(135)"/>
    <use href="#bl6" fill="#1c1c2c" transform="rotate(180)"/><use href="#bl6" fill="#1c1c2c" transform="rotate(225)"/>
    <use href="#bl6" fill="#1c1c2c" transform="rotate(270)"/><use href="#bl6" fill="#1c1c2c" transform="rotate(315)"/>
  </g>
  <circle r="14" fill="#090913" stroke="#2d2d3e" stroke-width="1.8"/>
  <circle r="8" fill="#060610" stroke="#343445" stroke-width="1.2"/>
  <circle r="3.5" fill="#151525"/>
</g>
<g transform="translate(290,108)">
  <rect x="-52" y="-52" width="104" height="104" rx="11" fill="#090913" stroke="#1e1e2e" stroke-width="1.8"/>
  <circle cx="-42" cy="-42" r="5.5" fill="#0d0d18" stroke="#222232" stroke-width="1.2"/><circle cx="-42" cy="-42" r="2" fill="#060610"/>
  <circle cx="42" cy="-42" r="5.5" fill="#0d0d18" stroke="#222232" stroke-width="1.2"/><circle cx="42" cy="-42" r="2" fill="#060610"/>
  <circle cx="-42" cy="42" r="5.5" fill="#0d0d18" stroke="#222232" stroke-width="1.2"/><circle cx="-42" cy="42" r="2" fill="#060610"/>
  <circle cx="42" cy="42" r="5.5" fill="#0d0d18" stroke="#222232" stroke-width="1.2"/><circle cx="42" cy="42" r="2" fill="#060610"/>
  <circle r="47" fill="none" stroke="#181828" stroke-width="2.5"/>
  <circle r="47" fill="none" stroke="url(#rgb6)" stroke-width="1" opacity="0.4" stroke-dasharray="15,10">
    <animateTransform attributeName="transform" type="rotate" from="360" to="0" dur="6s" repeatCount="indefinite"/>
  </circle>
  <g filter="url(#g6)">
    <animateTransform attributeName="transform" type="rotate" from="360" to="0" dur="1.05s" repeatCount="indefinite"/>
    <use href="#bl6" fill="#1c1c2c" transform="rotate(0)"/><use href="#bl6" fill="#1c1c2c" transform="rotate(45)"/>
    <use href="#bl6" fill="#1c1c2c" transform="rotate(90)"/><use href="#bl6" fill="#1c1c2c" transform="rotate(135)"/>
    <use href="#bl6" fill="#1c1c2c" transform="rotate(180)"/><use href="#bl6" fill="#1c1c2c" transform="rotate(225)"/>
    <use href="#bl6" fill="#1c1c2c" transform="rotate(270)"/><use href="#bl6" fill="#1c1c2c" transform="rotate(315)"/>
  </g>
  <circle r="14" fill="#090913" stroke="#2d2d3e" stroke-width="1.8"/>
  <circle r="8" fill="#060610" stroke="#343445" stroke-width="1.2"/>
  <circle r="3.5" fill="#151525"/>
</g>
<g transform="translate(450,108)">
  <rect x="-52" y="-52" width="104" height="104" rx="11" fill="#090913" stroke="#1e1e2e" stroke-width="1.8"/>
  <circle cx="-42" cy="-42" r="5.5" fill="#0d0d18" stroke="#222232" stroke-width="1.2"/><circle cx="-42" cy="-42" r="2" fill="#060610"/>
  <circle cx="42" cy="-42" r="5.5" fill="#0d0d18" stroke="#222232" stroke-width="1.2"/><circle cx="42" cy="-42" r="2" fill="#060610"/>
  <circle cx="-42" cy="42" r="5.5" fill="#0d0d18" stroke="#222232" stroke-width="1.2"/><circle cx="-42" cy="42" r="2" fill="#060610"/>
  <circle cx="42" cy="42" r="5.5" fill="#0d0d18" stroke="#222232" stroke-width="1.2"/><circle cx="42" cy="42" r="2" fill="#060610"/>
  <circle r="47" fill="none" stroke="#181828" stroke-width="2.5"/>
  <circle r="47" fill="none" stroke="url(#rgb6)" stroke-width="1" opacity="0.4" stroke-dasharray="15,10">
    <animateTransform attributeName="transform" type="rotate" from="0" to="360" dur="6s" repeatCount="indefinite"/>
  </circle>
  <g filter="url(#g6)">
    <animateTransform attributeName="transform" type="rotate" from="0" to="360" dur="1.05s" repeatCount="indefinite"/>
    <use href="#bl6" fill="#1c1c2c" transform="rotate(0)"/><use href="#bl6" fill="#1c1c2c" transform="rotate(45)"/>
    <use href="#bl6" fill="#1c1c2c" transform="rotate(90)"/><use href="#bl6" fill="#1c1c2c" transform="rotate(135)"/>
    <use href="#bl6" fill="#1c1c2c" transform="rotate(180)"/><use href="#bl6" fill="#1c1c2c" transform="rotate(225)"/>
    <use href="#bl6" fill="#1c1c2c" transform="rotate(270)"/><use href="#bl6" fill="#1c1c2c" transform="rotate(315)"/>
  </g>
  <circle r="14" fill="#090913" stroke="#2d2d3e" stroke-width="1.8"/>
  <circle r="8" fill="#060610" stroke="#343445" stroke-width="1.2"/>
  <circle r="3.5" fill="#151525"/>
</g>
<!-- Tubes and pump head -->
<path d="M50,172 C30,167 16,157 10,145 C4,132 8,118 4,106 C0,93 -8,86 -10,80" fill="none" stroke="#252538" stroke-width="9" stroke-linecap="round"/>
<path d="M50,172 C30,167 16,157 10,145 C4,132 8,118 4,106 C0,93 -8,86 -10,80" fill="none" stroke="#353548" stroke-width="7" stroke-linecap="round"/>
<path d="M50,183 C28,180 13,171 7,159 C1,147 5,133 1,121 C-3,109 -11,101 -13,95" fill="none" stroke="#1a1a28" stroke-width="9" stroke-linecap="round"/>
<path d="M50,183 C28,180 13,171 7,159 C1,147 5,133 1,121 C-3,109 -11,101 -13,95" fill="none" stroke="#2a2a38" stroke-width="7" stroke-linecap="round"/>
<g transform="translate(-12,166)">
  <rect x="-26" y="-26" width="52" height="52" rx="9" fill="url(#rgb6)" opacity="0.2" filter="url(#rg6)">
    <animate attributeName="opacity" values="0.15;0.4;0.15" dur="1.8s" repeatCount="indefinite"/>
  </rect>
  <rect x="-22" y="-22" width="44" height="44" rx="7" fill="#09091380" stroke="url(#rgb6)" stroke-width="2.2"/>
  <rect x="-15" y="-15" width="30" height="30" rx="5" fill="#060610" stroke="#181828" stroke-width="0.8"/>
  <polygon points="0,-10 7,2 6.5,2 6.5,8 -6.5,8 -6.5,2 -7,2" fill="rgba(255,255,255,0.9)"/>
  <polygon points="0,-8 -4,2 4,2" fill="#09091380"/>
  <circle cx="-18" cy="-18" r="3" fill="url(#rgb6)"><animate attributeName="opacity" values="1;0.1;1" dur="0.8s" repeatCount="indefinite"/></circle>
  <circle cx="18" cy="-18" r="3" fill="url(#rgb6)"><animate attributeName="opacity" values="0.1;1;0.1" dur="0.8s" begin="-0.2s" repeatCount="indefinite"/></circle>
  <circle cx="-18" cy="18" r="3" fill="url(#rgb6)"><animate attributeName="opacity" values="1;0.1;1" dur="0.8s" begin="-0.4s" repeatCount="indefinite"/></circle>
  <circle cx="18" cy="18" r="3" fill="url(#rgb6)"><animate attributeName="opacity" values="0.1;1;0.1" dur="0.8s" begin="-0.6s" repeatCount="indefinite"/></circle>
</g>
</svg>